<svg width="36" height="36" viewBox="0 0 36 36" fill="none" xmlns="http://www.w3.org/2000/svg">
<path d="M33.4322 35.9999C35.6431 35.9999 28.3526 34.6202 33.2473 27.5293L18.7061 35.9999H33.4322Z" fill="#E4F5FF"/>
<path d="M0 18C0 8.05888 8.05888 0 18 0C27.9411 0 36 8.05888 36 18C36 27.9411 27.9411 36 18 36C8.05888 36 0 27.9411 0 18Z" fill="#E4F5FF"/>
<path d="M17.647 7.05859C15.562 7.05859 13.862 8.7736 13.862 10.8892C13.862 13.0048 15.562 14.7198 17.647 14.7198C19.732 14.7198 21.432 13.0047 21.432 10.8892C21.432 8.7736 19.732 7.05859 17.647 7.05859Z" fill="#152FBF"/>
<path d="M28.2352 19.7324C28.2352 17.6166 26.5448 15.9014 24.4596 15.9014L13.8618 15.9014L13.8618 23.5634L24.4596 23.5634C26.5448 23.5634 28.2352 21.8482 28.2352 19.7324Z" fill="#1CABE2"/>
<path d="M17.6629 30.3525C19.7533 30.3525 21.4479 28.6331 21.4479 26.512L21.4479 15.9014L13.8779 15.9014L13.8779 26.512C13.8779 28.6331 15.5725 30.3525 17.6629 30.3525Z" fill="#4FD183"/>
<path d="M7.05882 19.7324C7.05882 21.8482 8.74925 23.5634 10.8345 23.5634L21.4322 23.5634L21.4322 15.9014L10.8345 15.9014C8.74925 15.9014 7.05882 17.6166 7.05882 19.7324Z" fill="#4FD183"/>
<path d="M13.8802 15.8896C13.8802 20.1209 17.2794 23.551 21.4495 23.551L21.4495 15.8896L13.8802 15.8896Z" fill="#8DD3FF"/>
</svg>
