<svg width="36" height="36" viewBox="0 0 36 36" fill="none" xmlns="http://www.w3.org/2000/svg">
<path d="M2.56812 36C0.357293 36 7.64779 34.6203 2.75303 27.5294L17.2942 36H2.56812Z" fill="#152FBF"/>
<path d="M36 18C36 8.05888 27.9411 0 18 0V0C8.05887 0 -8.9407e-07 8.05888 -8.9407e-07 18V18C-8.9407e-07 27.9411 8.05887 36 18 36V36C27.9411 36 36 27.9411 36 18V18Z" fill="#152FBF"/>
<path d="M24.6673 25.5V23.8333C24.6673 22.9493 24.3161 22.1014 23.691 21.4763C23.0659 20.8512 22.218 20.5 21.334 20.5H14.6673C13.7833 20.5 12.9354 20.8512 12.3103 21.4763C11.6852 22.1014 11.334 22.9493 11.334 23.8333V25.5" stroke="white" stroke-width="2" stroke-linecap="round" stroke-linejoin="round"/>
<path d="M17.9993 17.1667C19.8403 17.1667 21.3327 15.6743 21.3327 13.8333C21.3327 11.9924 19.8403 10.5 17.9993 10.5C16.1584 10.5 14.666 11.9924 14.666 13.8333C14.666 15.6743 16.1584 17.1667 17.9993 17.1667Z" stroke="white" stroke-width="2" stroke-linecap="round" stroke-linejoin="round"/>
</svg>
